<?xml version="1.0" encoding="utf-8"?>
<!-- Generator: Adobe Illustrator 21.0.0, SVG Export Plug-In . SVG Version: 6.00 Build 0)  -->
<svg version="1.1" id="Layer_1" xmlns="http://www.w3.org/2000/svg" xmlns:xlink="http://www.w3.org/1999/xlink" x="0px" y="0px"
	 viewBox="0 0 560 560" style="enable-background:new 0 0 560 560;" xml:space="preserve">
<style type="text/css">
	.st0{fill:none;}
	.st1{fill:#FFFFFF;stroke:#5AAAFA;stroke-miterlimit:10;}
	.st2{fill:#1CB3A0;}
	.st3{fill:none;stroke:#5AAAFA;stroke-width:2;stroke-miterlimit:10;}
	.st4{fill:#5AAAFA;}
	.st5{fill:#FC5255;}
	.st6{fill:#2E3737;}
	.st7{fill:#586565;}
	.st8{fill:#FCE77F;}
	.st9{fill:#FCD432;}
	.st10{fill:#030506;}
	.st11{fill:#3D4747;}
	.st12{fill:#975AD1;}
	.st13{fill:#FC42A0;}
	.st14{fill:#64BC46;}
	.st15{font-family:'Arial-BoldMT';}
	.st16{font-size:11.0645px;}
	.st17{fill:none;stroke:#5AAAFA;stroke-width:2;}
	.st18{fill:#3B4B54;}
	.st19{fill:#0883A5;}
	.st20{fill:#00AED1;}
	.st21{fill:#027C68;}
	.st22{fill:#00B199;}
	.st23{fill:#243238;}
	.st24{opacity:0.77;fill:#9CDAF0;enable-background:new    ;}
	.st25{opacity:0.77;fill:#201F1F;enable-background:new    ;}
	.st26{fill:#201F1F;}
	.st27{fill:#F4CAB1;}
	.st28{opacity:0.5;fill:#AC5C51;enable-background:new    ;}
	.st29{fill:#FFFFFF;}
	.st30{fill:#AC5C51;}
	.st31{fill:#9CDAF0;}
</style>
<rect id="svgEditorBackground" x="0.1" y="102.7" class="st0" width="559.9" height="354.5"/>
<g>
	<title>background</title>
</g>
<title>Layer 1</title>
<circle id="svg_4" class="st1" cx="37.9" cy="186.1" r="24.4"/>
<circle id="svg_5" class="st1" cx="38.2" cy="279.4" r="24.4"/>
<circle id="svg_6" class="st1" cx="38" cy="373" r="24.4"/>
<rect id="svg_8" x="9.3" y="106.4" class="st2" width="80.1" height="3.6"/>
<g id="svg_13">
	<g id="svg_14">
		<g id="svg_16">
		</g>
	</g>
</g>
<line id="svg_18" class="st3" x1="37.9" y1="250.5" x2="37.9" y2="231.7"/>
<g id="svg_19" transform="matrix(1.14076 0 0 1.14076 -144.293 -72.3371)">
	<g id="svg_20">
		<line id="svg_21" class="st3" x1="195.2" y1="226.4" x2="186.8" y2="226.4"/>
		<g id="svg_22">
			<polygon id="svg_23" class="st4" points="194,222.4 201,226.4 194,230.5 			"/>
		</g>
	</g>
</g>
<g id="svg_142">
	<g id="XMLID_4_">
		<g id="XMLID_6_">
		</g>
	</g>
</g>
<line id="svg_171" class="st3" x1="37.9" y1="344" x2="37.9" y2="322"/>
<path id="svg_192_2_" class="st3" d="M436.6,230.3"/>
<g id="svg_193">
</g>
<g id="svg_196">
	<g id="svg_198">
	</g>
</g>
<g id="svg_200">
	<g id="svg_201">
	</g>
</g>
<g id="svg_205">
	<g id="svg_206">
		<g id="svg_208">
		</g>
	</g>
</g>
<g id="svg_210" transform="matrix(1.14076 0 0 1.14076 -144.293 -72.3371)">
	<g id="svg_211">
		<line id="svg_212" class="st3" x1="231.5" y1="308.3" x2="187.2" y2="308.3"/>
		<g id="svg_213">
		</g>
	</g>
</g>
<g id="svg_215">
	<g id="svg_216">
		<g id="svg_218">
		</g>
	</g>
</g>
<g id="svg_279" transform="matrix(0.649488 0 0 1 224.706 89.2068)">
	<g id="svg_281">
	</g>
</g>
<rect id="svg_318" x="91.6" y="106.2" class="st5" width="63.6" height="4.1"/>
<circle id="svg_326" class="st1" cx="121.1" cy="188" r="24.4"/>
<path id="svg_342" class="st6" d="M124.2,196.8l-6.1,0.4c-0.6,0-1-0.4-1.1-0.9l0,0c0-0.6,0.4-1,0.9-1.1l6.1-0.4c0.6,0,1,0.4,1.1,0.9
	l0,0C125.2,196.3,124.7,196.8,124.2,196.8z"/>
<path id="svg_343" class="st6" d="M124.2,199.7l-6.1,0.4c-0.6,0-1-0.4-1.1-0.9l0,0c0-0.6,0.4-1,0.9-1.1l6.1-0.4c0.6,0,1,0.4,1.1,0.9
	l0,0C125.2,199.3,124.7,199.7,124.2,199.7z"/>
<g id="svg_344" transform="matrix(1.14076 0 0 1.14076 -421.597 -69.793)">
	<path id="svg_345" class="st7" d="M472.9,237.6L472.9,237.6c0.1,1.5,1.3,2.7,2.7,2.7c1.5,0,2.8-1.4,2.8-3c0,0,0,0,0-0.1
		L472.9,237.6z"/>
</g>
<g id="svg_346" transform="matrix(1.14076 0 0 1.14076 -421.597 -69.793)">
	<path id="svg_347" class="st8" d="M484.2,219.6c0-4.6-3.8-8.4-8.4-8.4c-4.6,0-8.4,3.8-8.4,8.4c0,2.2,0.8,4.1,2.1,5.6
		c1.3,1.7,1.9,2.2,1.9,5v0.2c0,0.4,0.3,0.7,0.7,0.7h7.2c0.4,0,0.7-0.3,0.7-0.7v-0.2c0-2.9,0.7-3.3,2.2-5.3l0,0
		C483.5,223.4,484.2,221.6,484.2,219.6z"/>
	<path id="svg_348" class="st8" d="M482.2,224.9l0.1-0.2C482.3,224.9,482.3,224.9,482.2,224.9L482.2,224.9z"/>
</g>
<path id="svg_349" class="st9" d="M130.7,180.7c0-5.3-4.3-9.6-9.6-9.6v22.7h4.1c0.5,0,0.8-0.4,0.8-0.8v-0.2c0-3.3,0.8-3.8,2.5-6l0,0
	C129.9,185.1,130.7,183,130.7,180.7z"/>
<path id="svg_350" class="st10" d="M125.1,198.9v-0.4c0-0.5-0.5-0.8-0.9-0.7l-3.1,0.2v2l3.3-0.2
	C124.8,199.7,125.2,199.4,125.1,198.9z"/>
<path id="svg_351" class="st10" d="M125.1,195.9v-0.3c0-0.5-0.5-0.8-0.9-0.7l-3.1,0.2v1.9l3.3-0.2
	C124.8,196.8,125.2,196.4,125.1,195.9z"/>
<path id="svg_352" class="st11" d="M124.4,200.7l-3.2,0.2v3.2C122.9,204.2,124.4,202.6,124.4,200.7L124.4,200.7z"/>
<circle id="svg_353" class="st12" cx="121.1" cy="180.8" r="6"/>
<path id="svg_354" class="st13" d="M121.1,174.8v12c3.3,0,6-2.7,6-6C127.1,177.6,124.4,174.8,121.1,174.8z"/>
<path id="svg_355" class="st14" d="M125.7,184.7c1.2-1.4,1.6-3.2,1.3-4.9l-5.9,1l-3.9,4.5C119.8,187.6,123.5,187.2,125.7,184.7z"/>
<g id="svg_356">
	<g id="svg_357">
		<g id="svg_359">
		</g>
	</g>
</g>
<g id="svg_363" transform="matrix(1.14076 0 0 1.14076 -144.293 -72.3371)">
	<g id="svg_365">
		<polygon id="e1_366" class="st4" points="235.3,290.6 231.2,283.5 227.3,290.6 		"/>
	</g>
</g>
<text id="headerSVG.code" transform="matrix(1 0 0 1 10.3102 123.5773)" class="st15 st16">CODE</text>
<text id="headerSVG.learn" transform="matrix(1 0 0 1 92.8679 124.9484)" class="st15 st16">LEARN</text>
<text id="headerSVG.repository1" transform="matrix(1 0 0 1 8.0485 225.2385)" class="st15 st16">REPOSITORY</text>
<text id="headerSVG.repository2" transform="matrix(1 0 0 1 8.0485 317.4416)" class="st15 st16">REPOSITORY</text>
<text id="headerSVG.repository3" transform="matrix(1 0 0 1 8.0485 411.4904)" class="st15 st16">REPOSITORY</text>
<text id="headerSVG.devops" transform="matrix(1 0 0 1 99.7219 236.2053)" class="st15 st16">DEVOPS</text>
<text id="headerSVG.insights" transform="matrix(1 0 0 1 96.9557 247.9543)" class="st15 st16">INSIGHTS</text>
<line id="e2_line" class="st17" x1="69.7" y1="374.7" x2="119.1" y2="374.7"/>
<line id="e3_line" class="st17" x1="119.8" y1="253.3" x2="119.1" y2="374"/>
<g id="hostedgit_icon1" display="default">
	<path class="st0" d="M30.5,187.1c-6-7.3,1.1-17,2.3-17"/>
	<path class="st18" d="M30.7,187.3c-0.1,0-0.3,0-0.4-0.1c-0.1,0-0.3,0-0.6-0.1c-4.1-0.6-6.4-3-7.5-4.8c-1.5,7.9,3.1,13.5,5.2,15.1
		c2.3,0,5.9-0.9,8.5-4.8C34.5,192.2,31.6,190.8,30.7,187.3z"/>
	<path class="st19" d="M36,192.6c-0.1,0.1-0.2,0.2-0.2,0.3c-0.1,0.1-0.2,0.3-0.3,0.4c-2.5,3.2-5.8,4-7.9,4.1
		c6.1,5.3,13.2,4.1,15.7,3.1c1.1-2,2.2-5.6,0.1-9.8C42.1,191.8,39.4,193.7,36,192.6z"/>
	<path class="st20" d="M43.3,190.7c0.1,0.1,0.1,0.2,0.1,0.4c0.1,0.1,0.1,0.3,0.2,0.5c1.5,3.8,0.6,7-0.4,8.9
		c7.6-2.7,10.1-9.4,10.5-12.1c-1.2-2-3.7-4.7-8.4-5C45.6,185,45.9,188.3,43.3,190.7z"/>
	<path class="st21" d="M45.3,183.5c0.1,0,0.3,0,0.4,0.1c0.1,0,0.3,0,0.6,0.1c4.1,0.6,6.4,3,7.5,4.8c1.5-7.9-3.1-13.5-5.2-15.1
		c-2.3,0-5.9,0.9-8.5,4.8C41.5,178.6,44.4,180,45.3,183.5z"/>
	<path class="st22" d="M40,178.2c0.1-0.1,0.2-0.2,0.2-0.3c0.1-0.1,0.2-0.3,0.3-0.4c2.5-3.2,5.8-4,7.9-4.1
		c-6.1-5.3-13.2-4.1-15.7-3.1c-1.1,2-2.2,5.6-0.1,9.8C33.9,179,36.6,177.1,40,178.2z"/>
	<path class="st23" d="M32.7,180.1c-0.1-0.1-0.1-0.2-0.1-0.4c-0.1-0.1-0.1-0.3-0.2-0.5c-1.5-3.8-0.6-7,0.4-8.9
		c-7.6,2.6-10.1,9.4-10.5,12c1.2,2,3.7,4.7,8.4,5C30.4,185.8,30.1,182.5,32.7,180.1z"/>
</g>
<g id="hostedgit_icon2" display="default">
	<path class="st0" d="M30.5,281.1c-6-7.3,1.1-17,2.3-17"/>
	<path class="st18" d="M30.7,281.3c-0.1,0-0.3,0-0.4-0.1c-0.1,0-0.3,0-0.6-0.1c-4.1-0.6-6.4-3-7.5-4.8c-1.5,7.9,3.1,13.5,5.2,15.1
		c2.3,0,5.9-0.9,8.5-4.8C34.5,286.2,31.6,284.8,30.7,281.3z"/>
	<path class="st19" d="M36,286.6c-0.1,0.1-0.2,0.2-0.2,0.3c-0.1,0.1-0.2,0.3-0.3,0.4c-2.5,3.2-5.8,4-7.9,4.1
		c6.1,5.3,13.2,4.1,15.7,3.1c1.1-2,2.2-5.6,0.1-9.8C42.1,285.8,39.4,287.7,36,286.6z"/>
	<path class="st20" d="M43.3,284.7c0.1,0.1,0.1,0.2,0.1,0.4c0.1,0.1,0.1,0.3,0.2,0.5c1.5,3.8,0.6,7-0.4,8.9
		c7.6-2.7,10.1-9.4,10.5-12.1c-1.2-2-3.7-4.7-8.4-5C45.6,279,45.9,282.3,43.3,284.7z"/>
	<path class="st21" d="M45.3,277.5c0.1,0,0.3,0,0.4,0.1c0.1,0,0.3,0,0.6,0.1c4.1,0.6,6.4,3,7.5,4.8c1.5-7.9-3.1-13.5-5.2-15.1
		c-2.3,0-5.9,0.9-8.5,4.8C41.5,272.6,44.4,274,45.3,277.5z"/>
	<path class="st22" d="M40,272.2c0.1-0.1,0.2-0.2,0.2-0.3c0.1-0.1,0.2-0.3,0.3-0.4c2.5-3.2,5.8-4,7.9-4.1
		c-6.1-5.3-13.2-4.1-15.7-3.1c-1.1,2-2.2,5.6-0.1,9.8C33.9,273,36.6,271.1,40,272.2z"/>
	<path class="st23" d="M32.7,274.1c-0.1-0.1-0.1-0.2-0.1-0.4c-0.1-0.1-0.1-0.3-0.2-0.5c-1.5-3.8-0.6-7,0.4-8.9
		c-7.6,2.6-10.1,9.4-10.5,12c1.2,2,3.7,4.7,8.4,5C30.4,279.8,30.1,276.5,32.7,274.1z"/>
</g>
<g id="hostedgit_icon3" display="default">
	<path class="st0" d="M30.7,374.3c-6-7.3,1.1-17,2.3-17"/>
	<path class="st18" d="M30.9,374.5c-0.1,0-0.3,0-0.4-0.1c-0.1,0-0.3,0-0.6-0.1c-4.1-0.6-6.4-3-7.5-4.8c-1.5,7.9,3.1,13.5,5.2,15.1
		c2.3,0,5.9-0.9,8.5-4.8C34.7,379.4,31.8,378,30.9,374.5z"/>
	<path class="st19" d="M36.2,379.8c-0.1,0.1-0.2,0.2-0.2,0.3c-0.1,0.1-0.2,0.3-0.3,0.4c-2.5,3.2-5.8,4-7.9,4.1
		c6.1,5.3,13.2,4.1,15.7,3.1c1.1-2,2.2-5.6,0.1-9.8C42.3,379,39.6,380.9,36.2,379.8z"/>
	<path class="st20" d="M43.5,377.9c0.1,0.1,0.1,0.2,0.1,0.4c0.1,0.1,0.1,0.3,0.2,0.5c1.5,3.8,0.6,7-0.4,8.9
		c7.6-2.7,10.1-9.4,10.5-12.1c-1.2-2-3.7-4.7-8.4-5C45.8,372.2,46.1,375.5,43.5,377.9z"/>
	<path class="st21" d="M45.5,370.7c0.1,0,0.3,0,0.4,0.1c0.1,0,0.3,0,0.6,0.1c4.1,0.6,6.4,3,7.5,4.8c1.5-7.9-3.1-13.5-5.2-15.1
		c-2.3,0-5.9,0.9-8.5,4.8C41.7,365.8,44.6,367.2,45.5,370.7z"/>
	<path class="st22" d="M40.2,365.4c0.1-0.1,0.2-0.2,0.2-0.3c0.1-0.1,0.2-0.3,0.3-0.4c2.5-3.2,5.8-4,7.9-4.1
		c-6.1-5.3-13.2-4.1-15.7-3.1c-1.1,2-2.2,5.6-0.1,9.8C34.1,366.2,36.8,364.3,40.2,365.4z"/>
	<path class="st23" d="M32.9,367.3c-0.1-0.1-0.1-0.2-0.1-0.4c-0.1-0.1-0.1-0.3-0.2-0.5c-1.5-3.8-0.6-7,0.4-8.9
		c-7.6,2.6-10.1,9.4-10.5,12c1.2,2,3.7,4.7,8.4,5C30.6,373,30.3,369.7,32.9,367.3z"/>
</g>
<g id="github_icon1" display="none">
	<path id="path-1" class="st24" d="M49.9,199.3c0,2.3-5.1,4.1-11.5,4.1s-11.5-1.8-11.5-4.1c0-2.3,5.1-4,11.5-4
		S49.9,197.1,49.9,199.3z"/>
	<path id="path-2" class="st25" d="M39.3,200c-0.3,0.2-0.6,0.5-0.7,0.9c-0.1,0.1-0.1,0.3-0.1,0.5v0.3v0.3v0.5v1c1.6,0,0.2,0,2.1-0.1
		v-0.1v-0.2V202v-0.3c0-0.2,0-0.2,0.1-0.5s0-0.4,0.2-0.6c0.1-0.1,0.1-0.1,0.1-0.2L39.3,200L39.3,200z"/>
	<path id="path-3" class="st25" d="M44.5,198.8L44.5,198.8c-0.1-0.2-0.4-0.2-0.8-0.2c-1.2,0-2.2,0.6-2.5,1.4h0.2l-0.2,0.4h-0.1v0.1
		l0,0v0.6v0.4v1.7v0.1l1.9-0.2v-2c0-0.1,0-0.1,0-0.2c0-0.2,0.1-0.4,0.1-0.5c0.1-0.2,0.2-0.4,0.4-0.6s0.4-0.3,0.7-0.5
		C44.4,199.2,44.6,199,44.5,198.8z"/>
	<path id="path-4" class="st25" d="M37.9,203.4L37.9,203.4c0.1,0,0.3,0,0.4,0s0.1,0,0.2,0l0,0c-0.1,0-0.1,0-0.2,0
		C38.1,203.4,38,203.4,37.9,203.4z"/>
	<path id="path-5" class="st25" d="M35.1,203.3c0.2,0,0.4,0,0.6,0.1l0,0C35.5,203.3,35.3,203.3,35.1,203.3L35.1,203.3z"/>
	<path id="path-6" class="st25" d="M37.9,201.9v-0.3v-0.3c0-0.2-0.1-0.3-0.1-0.5c-0.2-0.7-0.8-1.1-1.5-1.3v0.7h-1
		c0.2,0.1,0,0,0.3,0.3c0.2,0.2,0.1,0.3,0.2,0.6c0.1,0.3,0,0.3,0.1,0.5v0.3v1.4c0.7,0.1,1.4,0.1,2.1,0.1v-1L37.9,201.9
		C38,201.9,37.9,201.9,37.9,201.9z"/>
	<path id="path-7" class="st25" d="M35.1,203.3L35.1,203.3v-1.8v-0.4v-0.6l0,0c0-0.2-0.1-0.3-0.1-0.5c-0.2-0.8-1.3-1.5-2.6-1.5
		c-0.4,0-0.7,0-0.8,0.2l0,0c-0.1,0.2,0.1,0.4,0.3,0.5c0.3,0.2,0.5,0.3,0.7,0.5s0.3,0.4,0.4,0.6c0,0.1,0.1,0.3,0.1,0.5
		c0,0.1,0,0.1,0,0.2v1.9"/>
	<path id="path-8" class="st26" d="M51.8,183.1c2.5,0,4.8,0.3,6.9,0.7v-0.2c-2-0.4-4.2-0.7-6.6-0.7c-0.8,0-1.6,0-2.4,0.1
		c0.3-1.1,0.5-2.3,0.4-3.8c0-2.5-0.8-4.5-2.3-6c0.8-2.1-0.3-4.7-0.3-4.7s-2-0.2-5,1.9c-1.4-0.4-2.9-0.5-4.5-0.5
		c-1.7,0-3.3,0.2-4.9,0.7l0,0c-2.5-2-5.2-2-5.2-2s-1.2,3-0.2,5.1l0,0c-1.8,1.9-2.7,4.5-1.8,7.9c0.2,0.6,0.3,1.2,0.5,1.7
		c-0.7,0-1.4-0.1-2.1-0.1c-2.4,0-4.6,0.2-6.6,0.6v0.2c2-0.5,4.4-0.7,6.9-0.7c0.6,0,1.3,0,1.9,0.1c0.1,0.3,0.3,0.6,0.4,0.9
		c-0.8,0-1.7,0-2.6,0.1c-2.4,0.1-4.6,0.5-6.5,1v0.2c2-0.6,4.3-1,6.8-1.1c0.8,0,1.6-0.1,2.3-0.1c1.6,2.7,4.1,3.8,7.9,4.1
		c-0.9,0.5-1.5,1.4-1.6,2.4c-4.5,1.8-4.5-2.4-7-3.1c-0.2-0.1-0.3-0.1-0.5-0.1c-0.5-0.1-1,0-1.1,0.2l0,0v0.1c0,0.1,0,0.1,0.1,0.2
		c0.1,0.2,0.4,0.4,0.8,0.5c0.3,0.2,0.7,0.5,0.9,0.6c1.5,1.7,1.7,4.8,6.8,3.8v1.6v2.1c0,0.1,0,0.1,0,0.2c0,0.2-0.1,0.4-0.1,0.5
		c-0.1,0.2-0.2,0.4-0.4,0.6s-0.4,0.3-0.7,0.5c-0.2,0.1-0.4,0.3-0.3,0.5l0,0c0.1,0.2,0.3,0.2,0.8,0.2c1.3,0,2.3-0.6,2.6-1.5
		c0.1-0.1,0.1-0.3,0.1-0.5l0,0v-0.6v-0.4v-1.7v-2.1c0.1-0.8,0.5-1.4,0.6-1.3v1.3v3.5v2.1v0.3c0,0.2,0,0.2-0.1,0.5s0,0.4-0.2,0.6
		c-0.3,0.3,0,0.1-0.4,0.3c-0.2,0.1-0.2,0.3-0.2,0.5c0.1,0.2,0.2,0.3,0.7,0.3c1.1-0.2,1.9-0.6,2.2-1.5c0.1-0.1,0.1-0.3,0.1-0.5v-0.3
		V198v-0.5v-1.6v-5c0-0.2,0.1-0.3,0.3-0.3c0.1,0,0.3,0.1,0.3,0.3v5v1.6v0.5v0.3v0.3c0,0.2,0,0.3,0.1,0.5c0.2,0.8,1.1,1.3,2.2,1.5
		c0.4,0.1,0.6-0.1,0.7-0.3c0-0.2,0-0.4-0.2-0.5c-0.4-0.2-0.1,0-0.4-0.3c-0.2-0.2-0.1-0.4-0.2-0.6c-0.1-0.3,0-0.3-0.1-0.5v-0.3V196
		v-3.5v-1.3c0.1-0.1,0.5,0.4,0.6,1.3v2.1v1.7v0.4v0.6l0,0c0,0.2,0,0.3,0.1,0.5c0.2,0.8,1.3,1.5,2.6,1.5c0.4,0,0.7,0,0.8-0.2l0,0
		c0.1-0.2-0.1-0.4-0.3-0.5c-0.3-0.2-0.5-0.3-0.7-0.5s-0.3-0.4-0.4-0.6c0-0.1-0.1-0.3-0.1-0.5c0-0.1,0-0.1,0-0.2v-2.1v-3.4
		c0-1.1-0.7-2.3-1.7-2.8c3.7-0.2,6.5-1.3,7.9-4.1c0.8,0,1.6,0,2.5,0.1c2.5,0.1,4.8,0.5,6.8,1.1v-0.2c-1.9-0.5-4.1-0.9-6.5-1
		c-0.9-0.1-1.8-0.1-2.7-0.1c0.1-0.3,0.2-0.6,0.3-0.9C50.4,183.1,51.1,183.1,51.8,183.1L51.8,183.1z"/>
	<path id="path-9" class="st27" d="M47.3,182.1c0-2.5-1.8-4.5-4.3-4.5l0,0c-2.7,0-3.1,0.2-4.9,0.2s-2.2-0.2-4.7-0.2
		c-0.1,0-0.2,0-0.4,0c-2.4,0-4.3,1.9-4.3,4.4c0,2,1.2,3.8,3,4.5l0,0c0,0.2,3.6,1.6,11.3,0.6c0.3,0,0.7-0.1,1.1-0.2l0,0l0,0
		C46,186.2,47.3,184.2,47.3,182.1z"/>
	<path id="path-10" class="st28" d="M33.1,178.1c0.1,0,0.3,0,0.4,0c2.5,0,2.9,0.2,4.7,0.2s2.2-0.2,4.9-0.2l0,0
		c2.4,0,4.1,1.9,4.3,4.2c0-0.1,0-0.1,0-0.2c0-2.5-1.8-4.5-4.3-4.5l0,0c-2.7,0-3.1,0.2-4.9,0.2s-2.2-0.2-4.7-0.2c-0.1,0-0.2,0-0.4,0
		c-2.4,0-4.3,1.9-4.3,4.4c0,0.1,0,0.1,0,0.2C28.9,179.9,30.7,178.1,33.1,178.1z"/>
	<ellipse id="ellipse-1" class="st29" cx="33.1" cy="182" rx="1.9" ry="2.8"/>
	<ellipse id="ellipse-2" class="st30" cx="33.2" cy="182" rx="1.3" ry="1.8"/>
	<circle id="circle-2" class="st29" cx="32.7" cy="181.3" r="0.4"/>
	<ellipse id="ellipse-3" class="st29" cx="43.3" cy="182" rx="1.9" ry="2.8"/>
	<ellipse id="ellipse-4" class="st30" cx="43.1" cy="182.1" rx="1.3" ry="1.8"/>
	<circle id="circle-3" class="st29" cx="42.7" cy="181.3" r="0.3"/>
	<circle id="circle-4" class="st30" cx="38" cy="184.5" r="0.5"/>
	<path id="path-11" class="st30" d="M39,185.5c-0.1,0-0.1,0.1-0.1,0.2c-0.1,0.3-0.4,0.5-0.8,0.5s-0.7-0.2-0.8-0.5
		c0-0.1-0.1-0.2-0.1-0.2s-0.1,0.1-0.1,0.2c0.1,0.4,0.5,0.8,1.1,0.8c0.5,0,1-0.3,1.1-0.8C39.1,185.6,39,185.5,39,185.5z"/>
	<path id="path-12" class="st24" d="M25.5,189.8c0,0.2-0.2,0.3-0.3,0.3c-0.2,0-0.3-0.2-0.3-0.3s0.3-1.4,0.3-1.4
		S25.5,189.6,25.5,189.8z"/>
	<ellipse id="ellipse-5" class="st31" cx="26.5" cy="188.1" rx="0.2" ry="0.2"/>
	<ellipse id="ellipse-6" class="st31" cx="27.2" cy="188.6" rx="0.2" ry="0.2"/>

		<ellipse id="ellipse-7" transform="matrix(0.9227 -0.3856 0.3856 0.9227 -70.9037 25.3883)" class="st31" cx="27.8" cy="189.5" rx="0.2" ry="0.3"/>

		<ellipse id="ellipse-8" transform="matrix(0.7546 -0.6562 0.6562 0.7546 -117.9018 65.5142)" class="st31" cx="28.6" cy="190.4" rx="0.2" ry="0.3"/>

		<ellipse id="ellipse-9" transform="matrix(0.5 -0.866 0.866 0.5 -150.7865 121.0346)" class="st31" cx="29.4" cy="191.1" rx="0.2" ry="0.3"/>

		<ellipse id="ellipse-10" transform="matrix(0.1325 -0.9912 0.9912 0.1325 -163.3043 196.382)" class="st31" cx="30.5" cy="191.5" rx="0.2" ry="0.3"/>

		<ellipse id="ellipse-11" transform="matrix(0.9977 -6.731670e-02 6.731670e-02 0.9977 -12.8228 2.585)" class="st31" cx="31.9" cy="191.6" rx="0.3" ry="0.2"/>
	<path id="path-13" class="st31" d="M33.2,191.2c0,0.1,0,0.2-0.2,0.3c-0.2,0.1-0.3-0.1-0.3-0.2c0-0.1,0.1-0.2,0.3-0.3
		C33.2,191,33.2,191.1,33.2,191.2z"/>
	<path id="path-14" d="M34.9,188.3c-0.4,0.2-0.7,0.5-0.9,0.8c0.3-0.1,8.3-1.8,9.1,1.9c-0.1-1.1-0.7-2.1-1.7-2.7
		C38.2,188.6,34.9,188.3,34.9,188.3z"/>
	<path id="path-15" d="M33.3,190.7c0,1.2,0,2.2,0,2.2s-0.1,0-0.2,0C33.1,192.9,32.9,191.9,33.3,190.7z"/>
	<line id="line-2" class="st0" x1="41" y1="200.3" x2="39.8" y2="199.9"/>
	<line id="line-3" class="st0" x1="41.1" y1="203.3" x2="42.4" y2="203.3"/>
	<line id="line-4" class="st0" x1="41.5" y1="203.3" x2="41.1" y2="203.3"/>
	<line id="line-5" class="st0" x1="41.8" y1="203.2" x2="41.5" y2="203.3"/>
	<line id="line-6" class="st0" x1="41.5" y1="203.3" x2="41.2" y2="203.3"/>
	<line id="line-7" class="st0" x1="43" y1="203.1" x2="42.6" y2="203.1"/>
	<line id="line-8" class="st0" x1="42.3" y1="203.2" x2="42.6" y2="203.1"/>
	<line id="line-9" class="st0" x1="41.9" y1="203.2" x2="42.3" y2="203.2"/>
	<line id="line-10" class="st0" x1="41.5" y1="203.3" x2="41.8" y2="203.2"/>
	<line id="line-11" class="st0" x1="41.9" y1="203.2" x2="41.8" y2="203.2"/>
	<line id="line-12" class="st0" x1="41.1" y1="203.3" x2="41" y2="203.3"/>
	<line id="line-13" class="st0" x1="43" y1="203.1" x2="42.9" y2="203.1"/>
</g>
<g id="github_icon2" display="none">
	<path id="path-1_1_" class="st24" d="M49.9,293.3c0,2.3-5.1,4.1-11.5,4.1s-11.5-1.8-11.5-4.1c0-2.3,5.1-4,11.5-4
		S49.9,291.1,49.9,293.3z"/>
	<path id="path-2_1_" class="st25" d="M39.3,294c-0.3,0.2-0.6,0.5-0.7,0.9c-0.1,0.1-0.1,0.3-0.1,0.5v0.3v0.3v0.5v1
		c1.6,0,0.2,0,2.1-0.1v-0.1v-0.2V296v-0.3c0-0.2,0-0.2,0.1-0.5c0.1-0.3,0-0.4,0.2-0.6c0.1-0.1,0.1-0.1,0.1-0.2L39.3,294L39.3,294z"
		/>
	<path id="path-3_1_" class="st25" d="M44.5,292.8L44.5,292.8c-0.1-0.2-0.4-0.2-0.8-0.2c-1.2,0-2.2,0.6-2.5,1.4h0.2l-0.2,0.4h-0.1
		v0.1l0,0v0.6v0.4v1.7v0.1l1.9-0.2v-2c0-0.1,0-0.1,0-0.2c0-0.2,0.1-0.4,0.1-0.5c0.1-0.2,0.2-0.4,0.4-0.6c0.2-0.2,0.4-0.3,0.7-0.5
		C44.4,293.2,44.6,293,44.5,292.8z"/>
	<path id="path-4_1_" class="st25" d="M37.9,297.4L37.9,297.4c0.1,0,0.3,0,0.4,0s0.1,0,0.2,0l0,0c-0.1,0-0.1,0-0.2,0
		C38.1,297.4,38,297.4,37.9,297.4z"/>
	<path id="path-5_1_" class="st25" d="M35.1,297.3c0.2,0,0.4,0,0.6,0.1l0,0C35.5,297.3,35.3,297.3,35.1,297.3L35.1,297.3z"/>
	<path id="path-6_1_" class="st25" d="M37.9,295.9v-0.3v-0.3c0-0.2-0.1-0.3-0.1-0.5c-0.2-0.7-0.8-1.1-1.5-1.3v0.7h-1
		c0.2,0.1,0,0,0.3,0.3c0.2,0.2,0.1,0.3,0.2,0.6c0.1,0.3,0,0.3,0.1,0.5v0.3v1.4c0.7,0.1,1.4,0.1,2.1,0.1v-1L37.9,295.9
		C38,295.9,37.9,295.9,37.9,295.9z"/>
	<path id="path-7_1_" class="st25" d="M35.1,297.3L35.1,297.3v-1.8v-0.4v-0.6l0,0c0-0.2-0.1-0.3-0.1-0.5c-0.2-0.8-1.3-1.5-2.6-1.5
		c-0.4,0-0.7,0-0.8,0.2l0,0c-0.1,0.2,0.1,0.4,0.3,0.5c0.3,0.2,0.5,0.3,0.7,0.5c0.2,0.2,0.3,0.4,0.4,0.6c0,0.1,0.1,0.3,0.1,0.5
		c0,0.1,0,0.1,0,0.2v1.9"/>
	<path id="path-8_1_" class="st26" d="M51.8,277.1c2.5,0,4.8,0.3,6.9,0.7v-0.2c-2-0.4-4.2-0.7-6.6-0.7c-0.8,0-1.6,0-2.4,0.1
		c0.3-1.1,0.5-2.3,0.4-3.8c0-2.5-0.8-4.5-2.3-6c0.8-2.1-0.3-4.7-0.3-4.7s-2-0.2-5,1.9c-1.4-0.4-2.9-0.5-4.5-0.5
		c-1.7,0-3.3,0.2-4.9,0.7l0,0c-2.5-2-5.2-2-5.2-2s-1.2,3-0.2,5.1l0,0c-1.8,1.9-2.7,4.5-1.8,7.9c0.2,0.6,0.3,1.2,0.5,1.7
		c-0.7,0-1.4-0.1-2.1-0.1c-2.4,0-4.6,0.2-6.6,0.6v0.2c2-0.5,4.4-0.7,6.9-0.7c0.6,0,1.3,0,1.9,0.1c0.1,0.3,0.3,0.6,0.4,0.9
		c-0.8,0-1.7,0-2.6,0.1c-2.4,0.1-4.6,0.5-6.5,1v0.2c2-0.6,4.3-1,6.8-1.1c0.8,0,1.6-0.1,2.3-0.1c1.6,2.7,4.1,3.8,7.9,4.1
		c-0.9,0.5-1.5,1.4-1.6,2.4c-4.5,1.8-4.5-2.4-7-3.1c-0.2-0.1-0.3-0.1-0.5-0.1c-0.5-0.1-1,0-1.1,0.2l0,0v0.1c0,0.1,0,0.1,0.1,0.2
		c0.1,0.2,0.4,0.4,0.8,0.5c0.3,0.2,0.7,0.5,0.9,0.6c1.5,1.7,1.7,4.8,6.8,3.8v1.6v2.1c0,0.1,0,0.1,0,0.2c0,0.2-0.1,0.4-0.1,0.5
		c-0.1,0.2-0.2,0.4-0.4,0.6c-0.2,0.2-0.4,0.3-0.7,0.5c-0.2,0.1-0.4,0.3-0.3,0.5l0,0c0.1,0.2,0.3,0.2,0.8,0.2c1.3,0,2.3-0.6,2.6-1.5
		c0.1-0.1,0.1-0.3,0.1-0.5l0,0v-0.6v-0.4v-1.7v-2.1c0.1-0.8,0.5-1.4,0.6-1.3v1.3v3.5v2.1v0.3c0,0.2,0,0.2-0.1,0.5
		c-0.1,0.3,0,0.4-0.2,0.6c-0.3,0.3,0,0.1-0.4,0.3c-0.2,0.1-0.2,0.3-0.2,0.5c0.1,0.2,0.2,0.3,0.7,0.3c1.1-0.2,1.9-0.6,2.2-1.5
		c0.1-0.1,0.1-0.3,0.1-0.5v-0.3V292v-0.5v-1.6v-5c0-0.2,0.1-0.3,0.3-0.3c0.1,0,0.3,0.1,0.3,0.3v5v1.6v0.5v0.3v0.3
		c0,0.2,0,0.3,0.1,0.5c0.2,0.8,1.1,1.3,2.2,1.5c0.4,0.1,0.6-0.1,0.7-0.3c0-0.2,0-0.4-0.2-0.5c-0.4-0.2-0.1,0-0.4-0.3
		c-0.2-0.2-0.1-0.4-0.2-0.6c-0.1-0.3,0-0.3-0.1-0.5v-0.3V290v-3.5v-1.3c0.1-0.1,0.5,0.4,0.6,1.3v2.1v1.7v0.4v0.6l0,0
		c0,0.2,0,0.3,0.1,0.5c0.2,0.8,1.3,1.5,2.6,1.5c0.4,0,0.7,0,0.8-0.2l0,0c0.1-0.2-0.1-0.4-0.3-0.5c-0.3-0.2-0.5-0.3-0.7-0.5
		c-0.2-0.2-0.3-0.4-0.4-0.6c0-0.1-0.1-0.3-0.1-0.5c0-0.1,0-0.1,0-0.2v-2.1v-3.4c0-1.1-0.7-2.3-1.7-2.8c3.7-0.2,6.5-1.3,7.9-4.1
		c0.8,0,1.6,0,2.5,0.1c2.5,0.1,4.8,0.5,6.8,1.1v-0.2c-1.9-0.5-4.1-0.9-6.5-1c-0.9-0.1-1.8-0.1-2.7-0.1c0.1-0.3,0.2-0.6,0.3-0.9
		C50.4,277.1,51.1,277.1,51.8,277.1L51.8,277.1z"/>
	<path id="path-9_1_" class="st27" d="M47.3,276.1c0-2.5-1.8-4.5-4.3-4.5l0,0c-2.7,0-3.1,0.2-4.9,0.2s-2.2-0.2-4.7-0.2
		c-0.1,0-0.2,0-0.4,0c-2.4,0-4.3,1.9-4.3,4.4c0,2,1.2,3.8,3,4.5l0,0c0,0.2,3.6,1.6,11.3,0.6c0.3,0,0.7-0.1,1.1-0.2l0,0l0,0
		C46,280.2,47.3,278.2,47.3,276.1z"/>
	<path id="path-10_1_" class="st28" d="M33.1,272.1c0.1,0,0.3,0,0.4,0c2.5,0,2.9,0.2,4.7,0.2s2.2-0.2,4.9-0.2l0,0
		c2.4,0,4.1,1.9,4.3,4.2c0-0.1,0-0.1,0-0.2c0-2.5-1.8-4.5-4.3-4.5l0,0c-2.7,0-3.1,0.2-4.9,0.2s-2.2-0.2-4.7-0.2c-0.1,0-0.2,0-0.4,0
		c-2.4,0-4.3,1.9-4.3,4.4c0,0.1,0,0.1,0,0.2C28.9,273.9,30.7,272.1,33.1,272.1z"/>
	<ellipse id="ellipse-1_1_" class="st29" cx="33.1" cy="276" rx="1.9" ry="2.8"/>
	<ellipse id="ellipse-2_1_" class="st30" cx="33.2" cy="276" rx="1.3" ry="1.8"/>
	<circle id="circle-2_1_" class="st29" cx="32.7" cy="275.3" r="0.4"/>
	<ellipse id="ellipse-3_1_" class="st29" cx="43.3" cy="276" rx="1.9" ry="2.8"/>
	<ellipse id="ellipse-4_1_" class="st30" cx="43.1" cy="276.1" rx="1.3" ry="1.8"/>
	<circle id="circle-3_1_" class="st29" cx="42.7" cy="275.3" r="0.3"/>
	<circle id="circle-4_1_" class="st30" cx="38" cy="278.5" r="0.5"/>
	<path id="path-11_1_" class="st30" d="M39,279.5c-0.1,0-0.1,0.1-0.1,0.2c-0.1,0.3-0.4,0.5-0.8,0.5s-0.7-0.2-0.8-0.5
		c0-0.1-0.1-0.2-0.1-0.2s-0.1,0.1-0.1,0.2c0.1,0.4,0.5,0.8,1.1,0.8c0.5,0,1-0.3,1.1-0.8C39.1,279.6,39,279.5,39,279.5z"/>
	<path id="path-12_1_" class="st24" d="M25.5,283.8c0,0.2-0.2,0.3-0.3,0.3c-0.2,0-0.3-0.2-0.3-0.3s0.3-1.4,0.3-1.4
		S25.5,283.6,25.5,283.8z"/>
	<ellipse id="ellipse-5_1_" class="st31" cx="26.5" cy="282.1" rx="0.2" ry="0.2"/>
	<ellipse id="ellipse-6_1_" class="st31" cx="27.2" cy="282.6" rx="0.2" ry="0.2"/>

		<ellipse id="ellipse-7_1_" transform="matrix(0.9227 -0.3856 0.3856 0.9227 -107.1636 32.6602)" class="st31" cx="27.8" cy="283.5" rx="0.2" ry="0.3"/>

		<ellipse id="ellipse-8_1_" transform="matrix(0.7546 -0.6562 0.6562 0.7546 -179.609 88.5919)" class="st31" cx="28.6" cy="284.4" rx="0.2" ry="0.3"/>

		<ellipse id="ellipse-9_1_" transform="matrix(0.5 -0.866 0.866 0.5 -232.2253 168.0526)" class="st31" cx="29.4" cy="285.1" rx="0.2" ry="0.3"/>

		<ellipse id="ellipse-10_1_" transform="matrix(0.1325 -0.9912 0.9912 0.1325 -256.5134 277.9603)" class="st31" cx="30.5" cy="285.5" rx="0.2" ry="0.3"/>

		<ellipse id="ellipse-11_1_" transform="matrix(0.9977 -6.731670e-02 6.731670e-02 0.9977 -19.1531 2.7983)" class="st31" cx="31.9" cy="285.6" rx="0.3" ry="0.2"/>
	<path id="path-13_1_" class="st31" d="M33.2,285.2c0,0.1,0,0.2-0.2,0.3s-0.3-0.1-0.3-0.2c0-0.1,0.1-0.2,0.3-0.3
		C33.2,285,33.2,285.1,33.2,285.2z"/>
	<path id="path-14_1_" d="M34.9,282.3c-0.4,0.2-0.7,0.5-0.9,0.8c0.3-0.1,8.3-1.8,9.1,1.9c-0.1-1.1-0.7-2.1-1.7-2.7
		C38.2,282.6,34.9,282.3,34.9,282.3z"/>
	<path id="path-15_1_" d="M33.3,284.7c0,1.2,0,2.2,0,2.2s-0.1,0-0.2,0C33.1,286.9,32.9,285.9,33.3,284.7z"/>
	<line id="line-2_1_" class="st0" x1="41" y1="294.3" x2="39.8" y2="293.9"/>
	<line id="line-3_1_" class="st0" x1="41.1" y1="297.3" x2="42.4" y2="297.3"/>
	<line id="line-4_1_" class="st0" x1="41.5" y1="297.3" x2="41.1" y2="297.3"/>
	<line id="line-5_1_" class="st0" x1="41.8" y1="297.2" x2="41.5" y2="297.3"/>
	<line id="line-6_1_" class="st0" x1="41.5" y1="297.3" x2="41.2" y2="297.3"/>
	<line id="line-7_1_" class="st0" x1="43" y1="297.1" x2="42.6" y2="297.1"/>
	<line id="line-8_1_" class="st0" x1="42.3" y1="297.2" x2="42.6" y2="297.1"/>
	<line id="line-9_1_" class="st0" x1="41.9" y1="297.2" x2="42.3" y2="297.2"/>
	<line id="line-10_1_" class="st0" x1="41.5" y1="297.3" x2="41.8" y2="297.2"/>
	<line id="line-11_1_" class="st0" x1="41.9" y1="297.2" x2="41.8" y2="297.2"/>
	<line id="line-12_1_" class="st0" x1="41.1" y1="297.3" x2="41" y2="297.3"/>
	<line id="line-13_1_" class="st0" x1="43" y1="297.1" x2="42.9" y2="297.1"/>
</g>
<g id="github_icon3" display="none">
	<path id="path-1_2_" class="st24" d="M50.1,386.5c0,2.3-5.1,4.1-11.5,4.1s-11.5-1.8-11.5-4.1s5.1-4,11.5-4S50.1,384.3,50.1,386.5z"
		/>
	<path id="path-2_2_" class="st25" d="M39.5,387.2c-0.3,0.2-0.6,0.5-0.7,0.9c-0.1,0.1-0.1,0.3-0.1,0.5v0.3v0.3v0.5v1
		c1.6,0,0.2,0,2.1-0.1v-0.1v-0.2v-1.1v-0.3c0-0.2,0-0.2,0.1-0.5c0.1-0.3,0-0.4,0.2-0.6c0.1-0.1,0.1-0.1,0.1-0.2L39.5,387.2
		L39.5,387.2z"/>
	<path id="path-3_2_" class="st25" d="M44.7,386L44.7,386c-0.1-0.2-0.4-0.2-0.8-0.2c-1.2,0-2.2,0.6-2.5,1.4h0.2l-0.2,0.4h-0.1v0.1
		l0,0v0.6v0.4v1.7v0.1l1.9-0.2v-2c0-0.1,0-0.1,0-0.2c0-0.2,0.1-0.4,0.1-0.5c0.1-0.2,0.2-0.4,0.4-0.6c0.2-0.2,0.4-0.3,0.7-0.5
		C44.6,386.4,44.8,386.2,44.7,386z"/>
	<path id="path-4_2_" class="st25" d="M38.1,390.6L38.1,390.6c0.1,0,0.3,0,0.4,0s0.1,0,0.2,0l0,0c-0.1,0-0.1,0-0.2,0
		C38.3,390.6,38.2,390.6,38.1,390.6z"/>
	<path id="path-5_2_" class="st25" d="M35.3,390.5c0.2,0,0.4,0,0.6,0.1l0,0C35.7,390.5,35.5,390.5,35.3,390.5L35.3,390.5z"/>
	<path id="path-6_2_" class="st25" d="M38.1,389.1v-0.3v-0.3c0-0.2-0.1-0.3-0.1-0.5c-0.2-0.7-0.8-1.1-1.5-1.3v0.7h-1
		c0.2,0.1,0,0,0.3,0.3c0.2,0.2,0.1,0.3,0.2,0.6c0.1,0.3,0,0.3,0.1,0.5v0.3v1.4c0.7,0.1,1.4,0.1,2.1,0.1v-1L38.1,389.1
		C38.2,389.1,38.1,389.1,38.1,389.1z"/>
	<path id="path-7_2_" class="st25" d="M35.3,390.5L35.3,390.5v-1.8v-0.4v-0.6l0,0c0-0.2-0.1-0.3-0.1-0.5c-0.2-0.8-1.3-1.5-2.6-1.5
		c-0.4,0-0.7,0-0.8,0.2l0,0c-0.1,0.2,0.1,0.4,0.3,0.5c0.3,0.2,0.5,0.3,0.7,0.5c0.2,0.2,0.3,0.4,0.4,0.6c0,0.1,0.1,0.3,0.1,0.5
		c0,0.1,0,0.1,0,0.2v1.9"/>
	<path id="path-8_2_" class="st26" d="M52,370.3c2.5,0,4.8,0.3,6.9,0.7v-0.2c-2-0.4-4.2-0.7-6.6-0.7c-0.8,0-1.6,0-2.4,0.1
		c0.3-1.1,0.5-2.3,0.4-3.8c0-2.5-0.8-4.5-2.3-6c0.8-2.1-0.3-4.7-0.3-4.7s-2-0.2-5,1.9c-1.4-0.4-2.9-0.5-4.5-0.5
		c-1.7,0-3.3,0.2-4.9,0.7l0,0c-2.5-2-5.2-2-5.2-2s-1.2,3-0.2,5.1l0,0c-1.8,1.9-2.7,4.5-1.8,7.9c0.2,0.6,0.3,1.2,0.5,1.7
		c-0.7,0-1.4-0.1-2.1-0.1c-2.4,0-4.6,0.2-6.6,0.6v0.2c2-0.5,4.4-0.7,6.9-0.7c0.6,0,1.3,0,1.9,0.1c0.1,0.3,0.3,0.6,0.4,0.9
		c-0.8,0-1.7,0-2.6,0.1c-2.4,0.1-4.6,0.5-6.5,1v0.2c2-0.6,4.3-1,6.8-1.1c0.8,0,1.6-0.1,2.3-0.1c1.6,2.7,4.1,3.8,7.9,4.1
		c-0.9,0.5-1.5,1.4-1.6,2.4c-4.5,1.8-4.5-2.4-7-3.1c-0.2-0.1-0.3-0.1-0.5-0.1c-0.5-0.1-1,0-1.1,0.2l0,0v0.1c0,0.1,0,0.1,0.1,0.2
		c0.1,0.2,0.4,0.4,0.8,0.5c0.3,0.2,0.7,0.5,0.9,0.6c1.5,1.7,1.7,4.8,6.8,3.8v1.6v2.1c0,0.1,0,0.1,0,0.2c0,0.2-0.1,0.4-0.1,0.5
		c-0.1,0.2-0.2,0.4-0.4,0.6c-0.2,0.2-0.4,0.3-0.7,0.5c-0.2,0.1-0.4,0.3-0.3,0.5l0,0c0.1,0.2,0.3,0.2,0.8,0.2c1.3,0,2.3-0.6,2.6-1.5
		c0.1-0.1,0.1-0.3,0.1-0.5l0,0v-0.6v-0.4v-1.7v-2.1c0.1-0.8,0.5-1.4,0.6-1.3v1.3v3.5v2.1v0.3c0,0.2,0,0.2-0.1,0.5
		c-0.1,0.3,0,0.4-0.2,0.6c-0.3,0.3,0,0.1-0.4,0.3c-0.2,0.1-0.2,0.3-0.2,0.5c0.1,0.2,0.2,0.3,0.7,0.3c1.1-0.2,1.9-0.6,2.2-1.5
		c0.1-0.1,0.1-0.3,0.1-0.5v-0.3v-0.3v-0.5v-1.6v-5c0-0.2,0.1-0.3,0.3-0.3c0.1,0,0.3,0.1,0.3,0.3v5v1.6v0.5v0.3v0.3
		c0,0.2,0,0.3,0.1,0.5c0.2,0.8,1.1,1.3,2.2,1.5c0.4,0.1,0.6-0.1,0.7-0.3c0-0.2,0-0.4-0.2-0.5c-0.4-0.2-0.1,0-0.4-0.3
		c-0.2-0.2-0.1-0.4-0.2-0.6c-0.1-0.3,0-0.3-0.1-0.5v-0.3v-2.1v-3.5v-1.3c0.1-0.1,0.5,0.4,0.6,1.3v2.1v1.7v0.4v0.6l0,0
		c0,0.2,0,0.3,0.1,0.5c0.2,0.8,1.3,1.5,2.6,1.5c0.4,0,0.7,0,0.8-0.2l0,0c0.1-0.2-0.1-0.4-0.3-0.5c-0.3-0.2-0.5-0.3-0.7-0.5
		c-0.2-0.2-0.3-0.4-0.4-0.6c0-0.1-0.1-0.3-0.1-0.5c0-0.1,0-0.1,0-0.2v-2.1v-3.4c0-1.1-0.7-2.3-1.7-2.8c3.7-0.2,6.5-1.3,7.9-4.1
		c0.8,0,1.6,0,2.5,0.1c2.5,0.1,4.8,0.5,6.8,1.1v-0.2c-1.9-0.5-4.1-0.9-6.5-1c-0.9-0.1-1.8-0.1-2.7-0.1c0.1-0.3,0.2-0.6,0.3-0.9
		C50.6,370.3,51.3,370.3,52,370.3L52,370.3z"/>
	<path id="path-9_2_" class="st27" d="M47.5,369.3c0-2.5-1.8-4.5-4.3-4.5l0,0c-2.7,0-3.1,0.2-4.9,0.2s-2.2-0.2-4.7-0.2
		c-0.1,0-0.2,0-0.4,0c-2.4,0-4.3,1.9-4.3,4.4c0,2,1.2,3.8,3,4.5l0,0c0,0.2,3.6,1.6,11.3,0.6c0.3,0,0.7-0.1,1.1-0.2l0,0l0,0
		C46.2,373.4,47.5,371.4,47.5,369.3z"/>
	<path id="path-10_2_" class="st28" d="M33.3,365.3c0.1,0,0.3,0,0.4,0c2.5,0,2.9,0.2,4.7,0.2s2.2-0.2,4.9-0.2l0,0
		c2.4,0,4.1,1.9,4.3,4.2c0-0.1,0-0.1,0-0.2c0-2.5-1.8-4.5-4.3-4.5l0,0c-2.7,0-3.1,0.2-4.9,0.2s-2.2-0.2-4.7-0.2c-0.1,0-0.2,0-0.4,0
		c-2.4,0-4.3,1.9-4.3,4.4c0,0.1,0,0.1,0,0.2C29.1,367.1,30.9,365.3,33.3,365.3z"/>
	<ellipse id="ellipse-1_2_" class="st29" cx="33.3" cy="369.2" rx="1.9" ry="2.8"/>
	<ellipse id="ellipse-2_2_" class="st30" cx="33.4" cy="369.2" rx="1.3" ry="1.8"/>
	<circle id="circle-2_2_" class="st29" cx="32.9" cy="368.5" r="0.4"/>
	<ellipse id="ellipse-3_2_" class="st29" cx="43.5" cy="369.2" rx="1.9" ry="2.8"/>
	<ellipse id="ellipse-4_2_" class="st30" cx="43.3" cy="369.3" rx="1.3" ry="1.8"/>
	<circle id="circle-3_2_" class="st29" cx="42.9" cy="368.5" r="0.3"/>
	<circle id="circle-4_2_" class="st30" cx="38.2" cy="371.7" r="0.5"/>
	<path id="path-11_2_" class="st30" d="M39.2,372.7c-0.1,0-0.1,0.1-0.1,0.2c-0.1,0.3-0.4,0.5-0.8,0.5s-0.7-0.2-0.8-0.5
		c0-0.1-0.1-0.2-0.1-0.2s-0.1,0.1-0.1,0.2c0.1,0.4,0.5,0.8,1.1,0.8c0.5,0,1-0.3,1.1-0.8C39.3,372.8,39.2,372.7,39.2,372.7z"/>
	<path id="path-12_2_" class="st24" d="M25.7,377c0,0.2-0.2,0.3-0.3,0.3c-0.2,0-0.3-0.2-0.3-0.3s0.3-1.4,0.3-1.4
		S25.7,376.8,25.7,377z"/>
	<ellipse id="ellipse-5_2_" class="st31" cx="26.7" cy="375.3" rx="0.2" ry="0.2"/>
	<ellipse id="ellipse-6_2_" class="st31" cx="27.4" cy="375.8" rx="0.2" ry="0.2"/>

		<ellipse id="ellipse-7_2_" transform="matrix(0.9227 -0.3856 0.3856 0.9227 -143.085 39.9443)" class="st31" cx="28" cy="376.7" rx="0.2" ry="0.3"/>

		<ellipse id="ellipse-8_2_" transform="matrix(0.7546 -0.6562 0.6562 0.7546 -240.7172 111.5951)" class="st31" cx="28.8" cy="377.6" rx="0.2" ry="0.3"/>

		<ellipse id="ellipse-9_2_" transform="matrix(0.5 -0.866 0.866 0.5 -312.8383 214.8248)" class="st31" cx="29.6" cy="378.3" rx="0.2" ry="0.3"/>

		<ellipse id="ellipse-10_2_" transform="matrix(0.1325 -0.9912 0.9912 0.1325 -348.7181 359.0097)" class="st31" cx="30.7" cy="378.7" rx="0.2" ry="0.3"/>

		<ellipse id="ellipse-11_2_" transform="matrix(0.9977 -6.731670e-02 6.731670e-02 0.9977 -25.4266 3.0231)" class="st31" cx="32.1" cy="378.8" rx="0.3" ry="0.2"/>
	<path id="path-13_2_" class="st31" d="M33.4,378.4c0,0.1,0,0.2-0.2,0.3c-0.2,0.1-0.3-0.1-0.3-0.2s0.1-0.2,0.3-0.3
		C33.4,378.2,33.4,378.3,33.4,378.4z"/>
	<path id="path-14_2_" d="M35.1,375.5c-0.4,0.2-0.7,0.5-0.9,0.8c0.3-0.1,8.3-1.8,9.1,1.9c-0.1-1.1-0.7-2.1-1.7-2.7
		C38.4,375.8,35.1,375.5,35.1,375.5z"/>
	<path id="path-15_2_" d="M33.5,377.9c0,1.2,0,2.2,0,2.2s-0.1,0-0.2,0C33.3,380.1,33.1,379.1,33.5,377.9z"/>
	<line id="line-2_2_" class="st0" x1="41.2" y1="387.5" x2="40" y2="387.1"/>
	<line id="line-3_2_" class="st0" x1="41.3" y1="390.5" x2="42.6" y2="390.5"/>
	<line id="line-4_2_" class="st0" x1="41.7" y1="390.5" x2="41.3" y2="390.5"/>
	<line id="line-5_2_" class="st0" x1="42" y1="390.4" x2="41.7" y2="390.5"/>
	<line id="line-6_2_" class="st0" x1="41.7" y1="390.5" x2="41.4" y2="390.5"/>
	<line id="line-7_2_" class="st0" x1="43.2" y1="390.3" x2="42.8" y2="390.3"/>
	<line id="line-8_2_" class="st0" x1="42.5" y1="390.4" x2="42.8" y2="390.3"/>
	<line id="line-9_2_" class="st0" x1="42.1" y1="390.4" x2="42.5" y2="390.4"/>
	<line id="line-10_2_" class="st0" x1="41.7" y1="390.5" x2="42" y2="390.4"/>
	<line id="line-11_2_" class="st0" x1="42.1" y1="390.4" x2="42" y2="390.4"/>
	<line id="line-12_2_" class="st0" x1="41.3" y1="390.5" x2="41.2" y2="390.5"/>
	<line id="line-13_2_" class="st0" x1="43.2" y1="390.3" x2="43.1" y2="390.3"/>
</g>
<g id="bitbucket_icon1" display="none">
	<path d="M51.6,178.2v-2.4h-1.1h-1.1v-1.2v-1.2h-1.1H26.7h-1.1v1.2v1.2h-1.1h-1.1v2.4h-2.2v19.5h32.6v-19.5H51.6z M26.7,174.5h21.6
		v1.2H26.7V174.5z M52.7,196.5H22.4v-17.1h1.1h28.1h1.1V196.5z"/>
	<polygon points="40.8,188 34.3,188 34.3,186.7 33.2,186.7 33.2,188 33.2,189.2 34.3,189.2 40.8,189.2 41.9,189.2 41.9,188
		41.9,186.7 40.8,186.7 	"/>
</g>
<g id="bitbucket_icon2" display="none">
	<path d="M51.6,272.2v-2.4h-1.1h-1.1v-1.2v-1.2h-1.1H26.7h-1.1v1.2v1.2h-1.1h-1.1v2.4h-2.2v19.5h32.6v-19.5H51.6z M26.7,268.5h21.6
		v1.2H26.7V268.5z M52.7,290.5H22.4v-17.1h1.1h28.1h1.1V290.5z"/>
	<polygon points="40.8,282 34.3,282 34.3,280.7 33.2,280.7 33.2,282 33.2,283.2 34.3,283.2 40.8,283.2 41.9,283.2 41.9,282
		41.9,280.7 40.8,280.7 	"/>
</g>
<g id="bitbucket_icon3" display="none">
	<path d="M51.8,365.4V363h-1.1h-1.1v-1.2v-1.2h-1.1H26.9h-1.1v1.2v1.2h-1.1h-1.1v2.4h-2.2v19.5H54v-19.5H51.8z M26.9,361.7h21.6v1.2
		H26.9V361.7z M52.9,383.7H22.6v-17.1h1.1h28.1h1.1V383.7z"/>
	<polygon points="41,375.2 34.5,375.2 34.5,373.9 33.4,373.9 33.4,375.2 33.4,376.4 34.5,376.4 41,376.4 42.1,376.4 42.1,375.2
		42.1,373.9 41,373.9 	"/>
</g>
</svg>
